<?xml version="1.0" encoding="UTF-8" standalone="no"?>
<svg
   xmlns:dc="http://purl.org/dc/elements/1.1/"
   xmlns:cc="http://creativecommons.org/ns#"
   xmlns:rdf="http://www.w3.org/1999/02/22-rdf-syntax-ns#"
   xmlns:svg="http://www.w3.org/2000/svg"
   xmlns="http://www.w3.org/2000/svg"
   xmlns:sodipodi="http://sodipodi.sourceforge.net/DTD/sodipodi-0.dtd"
   xmlns:inkscape="http://www.inkscape.org/namespaces/inkscape"
   inkscape:version="1.0beta2 (2b71d25, 2019-12-03)"
   sodipodi:docname="BSP Flag.svg"
   id="svg1737"
   version="1.1"
   viewBox="0 0 900 600">
  <metadata
     id="metadata1743">
    <rdf:RDF>
      <cc:Work
         rdf:about="">
        <dc:format>image/svg+xml</dc:format>
        <dc:type
           rdf:resource="http://purl.org/dc/dcmitype/StillImage" />
        <dc:title></dc:title>
      </cc:Work>
    </rdf:RDF>
  </metadata>
  <defs
     id="defs1741" />
  <sodipodi:namedview
     inkscape:current-layer="layer2"
     inkscape:window-maximized="0"
     inkscape:window-y="25"
     inkscape:window-x="-41"
     inkscape:cy="81.617647"
     inkscape:cx="111.39706"
     inkscape:zoom="0.45333333"
     showgrid="false"
     id="namedview1739"
     inkscape:window-height="800"
     inkscape:window-width="1440"
     inkscape:pageshadow="2"
     inkscape:pageopacity="0"
     guidetolerance="10"
     gridtolerance="10"
     objecttolerance="10"
     borderopacity="1"
     inkscape:document-rotation="0"
     bordercolor="#666666"
     pagecolor="#ffffff" />
  <g
     inkscape:label="Fond"
     id="layer2"
     inkscape:groupmode="layer">
    <path
       style="fill:#22409a;fill-opacity:1"
       id="path1717"
       d="M 2.3529412e-6,0.2058835 H 899.99998 V 600.20588 H 2.3529412e-6 Z"
       fill="#de0000"
       inkscape:connector-curvature="0" />
  </g>
  <g
     style="display:inline"
     inkscape:label="Elephant"
     id="layer1"
     inkscape:groupmode="layer">
    <path
       style="stroke-width:1.1743"
       id="path1038"
       d="m 188.67516,271.15456 c 5.47223,2.30163 11.03723,4.39188 16.722,6.10635 -0.18789,3.14712 -0.40043,6.29424 -0.63412,9.46602 -5.05065,23.17828 -6.21791,47.15979 -3.40546,70.5976 1.59939,13.33063 8.78374,25.2474 14.65523,37.17827 3.59335,8.24474 9.44253,15.71797 17.28566,19.79983 10.32208,5.37359 20.49033,5.1857 34.18851,3.31152 1.37393,-0.18789 4.39187,-2.03388 5.5967,-2.72437 8.75557,-5.02247 17.00266,-12.37827 20.12746,-22.52538 0.98641,-2.37208 1.99631,-4.72068 3.02969,-7.04579 1.57356,-10.9421 0,-21.88773 -2.16071,-32.62081 -1.55007,1.6675 -3.07666,3.35732 -4.62673,5.02482 -3.66263,3.24106 -8.22008,3.57104 -12.5415,1.33987 -1.78493,-0.13974 -3.56986,-0.25952 -5.33131,-0.37577 -0.14092,5.07296 1.42207,10.50644 -0.46854,15.24238 -1.70274,4.26388 -5.04244,8.46316 -9.32393,10.24105 -5.70591,2.36973 -10.6638,0.90421 -13.05819,-1.33987 -16.21235,-15.18837 -4.53161,-41.54783 -3.24106,-62.1685 0.4932,-0.0235 1.45613,-0.11508 1.94933,-0.16323 -0.1186,-7.44504 -1.03338,-15.24238 1.94934,-22.28817 2.25465,-5.51802 3.40429,-11.3672 3.82821,-17.30914 5.54268,-1.50193 11.17931,-2.74786 16.76897,-4.11005 1.73679,-0.3746 5.1904,-1.14963 6.90487,-1.5489 4.22747,-1.19895 8.57237,-1.94933 12.91728,-2.65508 0.0705,2.4672 0.14091,4.95671 0.21137,7.42156 8.22008,-1.05569 12.94076,-8.29054 19.5638,-12.35361 6.71698,-4.13471 14.3734,-6.29424 21.37222,-9.88759 4.3907,-0.3288 8.78257,-0.58715 13.17562,-0.7997 3.05317,5.40295 6.59955,10.61565 8.50191,16.55878 -1.36218,13.3635 -4.81579,26.58492 -10.26336,38.86925 -1.22127,4.22747 -2.46602,8.45377 -3.59452,12.7059 -1.85422,4.32142 -3.70961,8.66514 -5.58966,12.98656 -0.86898,3.31152 -1.71448,6.62421 -2.74786,9.88994 -0.84549,15.66513 -2.34859,31.25863 -2.63042,46.94842 0.21254,11.55509 -5.63663,21.86425 -8.90118,32.66661 -0.82084,5.54386 -1.97282,11.06189 -3.66264,16.41668 -3.43012,2.20886 -7.09275,4.22748 -9.98153,7.18553 -2.34859,4.55745 -2.98271,9.79365 -4.27561,14.72687 9.34741,2.3486 18.92967,3.80472 28.04222,7.04579 11.46232,0.56366 22.99275,1.17429 34.43041,-0.0482 5.70709,-0.72689 9.62925,-5.21271 13.52791,-8.99512 0.14092,-6.67001 0.0716,-13.31654 0.37578,-19.98655 0.91595,-14.51314 6.74047,-27.99526 9.5353,-42.13263 1.5031,-6.92835 4.60324,-13.36468 7.72688,-19.68357 7.1867,15.80722 6.387,33.37589 5.61314,50.30926 -0.84667,11.86041 -10.24105,22.71092 -6.03707,34.92361 15.14844,10.16942 34.6183,8.1966 51.97677,7.67874 7.95822,-2.04328 16.71965,-6.34121 18.88036,-15.03219 3.31152,-12.82098 -6.24727,-24.26099 -5.66012,-36.96572 0.18789,-10.94445 -0.63294,-21.96054 1.00873,-32.8087 3.43129,-18.53159 7.30765,-37.11016 5.71061,-56.08681 6.03236,1.97282 12.04594,4.04076 18.05952,6.08286 2.93574,1.10502 5.87149,2.20886 8.83072,3.31152 10.84816,4.81697 22.80721,7.32762 32.60085,14.32761 2.46368,0.23368 4.90857,0.46972 7.37107,0.72689 6.24726,3.33501 12.6601,6.48212 17.96793,11.27561 -0.27948,11.48345 0.87133,23.06203 -1.00872,34.45389 -3.03204,13.24491 -9.86176,25.17577 -16.77015,36.73086 -3.99026,5.54386 -8.43146,10.8282 -11.22511,17.16706 9.83944,21.01993 37.64681,24.14473 57.54059,18.08418 4.88508,-2.69971 8.71094,-6.92835 12.82098,-10.61682 1.62405,-8.64166 3.49941,-17.3068 3.00855,-26.16218 -0.70693,-15.12613 3.02734,-29.96808 7.44505,-44.318 1.73796,0.21138 3.47709,0.44741 5.23854,0.70693 4.17933,4.74299 9.48598,8.49957 13.26604,13.59602 6.8579,15.03218 3.66498,32.88034 -3.84817,47.02005 -2.18302,6.08287 -1.29408,12.72939 -1.36219,19.0706 7.67874,8.68745 19.93958,6.41284 30.05968,9.25229 7.04578,0.14209 13.97649,-1.15081 20.90367,-2.37208 6.12866,-2.3486 12.02716,-5.37828 17.07311,-9.65155 4.93558,-16.48832 0.44976,-33.2338 -0.0235,-49.9558 -2.3028,-14.8901 -5.33014,-29.63928 -8.0322,-44.43543 -1.19778,-11.88272 -3.45009,-23.67384 -3.73427,-35.65285 -1.36218,-7.51316 -1.38567,-15.16958 0.0963,-22.68509 0.37577,-8.24474 0.58715,-16.5118 1.52306,-24.70839 6.99999,9.72436 10.61918,21.7245 10.2434,33.67886 -0.11978,5.47222 0.94061,10.87634 2.2523,16.18299 -2.77017,6.27075 -2.37208,13.19911 -2.34859,19.86912 2.3028,1.22244 4.60559,2.44254 6.90839,3.66263 1.26589,7.13973 1.94464,15.64165 8.66514,20.01121 7.04579,1.12615 10.73426,-6.05937 14.72452,-10.45125 3.35732,-12.98891 -2.95923,-25.64666 -7.8901,-37.32035 -4.83928,-10.05082 -7.21137,-20.97179 -10.26571,-31.60975 -3.23872,-10.66497 -3.23872,-22.07797 -7.25716,-32.55271 -6.69233,-12.04829 -7.04579,-26.18684 -10.78006,-39.19806 -2.1607,-10.49822 -7.49084,-19.89259 -13.12865,-28.86422 -5.91728,-9.60693 -15.94461,-15.38448 -23.95332,-22.99275 -16.60574,-15.35982 -36.47604,-26.39704 -55.24249,-38.7988 -16.55525,-9.55878 -34.59129,-16.46365 -52.86688,-22.02982 -3.82586,-1.03338 -7.67873,-1.99631 -11.48111,-3.05435 -21.8208,-3.0062 -43.82479,-6.43398 -65.90276,-4.3449 -12.75288,1.40915 -25.69481,0.3288 -38.30677,2.84297 -7.75036,1.0557 -15.7121,1.1743 -23.46129,-0.1186 -9.11373,-1.97282 -18.69482,-1.55007 -27.50206,-5.00252 -3.12363,-1.03338 -6.27192,-1.99631 -9.41904,-3.02969 -11.67252,-2.72437 -23.50944,-2.23116 -35.04104,0.98641 -14.27946,-0.72806 -28.53544,-6.48212 -42.76792,-3.0062 -14.11624,4.72068 -18.8604,20.64416 -22.47724,33.51447 -11.76646,17.73189 -16.86174,38.63322 -24.42539,58.29214 -3.99144,10.63913 -8.5254,21.09038 -13.43279,31.33142 -2.63043,2.39439 -4.50108,5.79281 -7.60123,7.36637 -7.02113,2.16071 -14.03873,3.25985 -22.22358,3.32679 -2.30045,0.0188 -5.5192,0.3335 -7.58597,1.3657 1.19779,1.83308 2.34038,2.39322 4.19225,3.55813 2.72671,1.71565 6.09108,1.76144 9.28517,2.22999 5.23736,1.03338 10.56868,1.26824 15.8765,1.52776 -0.18789,3.02851 -0.66935,7.49202 -0.83375,10.49705 -6.92836,1.12732 -13.50325,1.27881 -20.51498,1.80841 -1.74501,0.13153 -8.96341,-0.70927 -9.07028,0.23721 -0.11977,1.08153 6.92131,4.9297 8.39036,5.85035 z"
       fill="#FFFFFF"
       inkscape:connector-curvature="0" />
    <path
       id="path1044"
       d="m 243.9611,262.84054 c 9.30044,-2.32394 17.94209,-6.48213 26.98419,-9.5811 7.21136,-0.82201 14.42037,1.64284 21.65405,1.99513 -0.14092,2.04328 -0.28184,4.08656 -0.39927,6.13101 -7.70456,-0.16557 -15.17192,1.64284 -22.47723,3.92216 -0.61063,0.79852 -1.8319,2.41905 -2.44254,3.21757 -4.8381,0.35229 -9.6997,0.93944 -14.0446,3.2164 -8.38448,5.309 -18.41299,4.79114 -27.87665,4.11005 -3.05435,-1.24476 -6.23787,-1.84013 -9.40965,-2.75726 -2.13605,-0.6165 -6.32712,-2.22177 -8.48782,-2.668 8.22008,-2.25465 16.8864,-2.37208 25.05951,-4.90856 3.82938,-0.89247 7.6576,-1.73797 11.44001,-2.6774 z"
       stroke-width="0.1875"
       stroke="#22409A"
       fill="#22409A"
       inkscape:connector-curvature="0" />
    <path
       id="path1046"
       d="m 207.79273,345.37018 c -1.0099,-22.47488 1.43264,-44.83469 4.76765,-67.00543 5.58965,1.00872 11.15583,2.06677 16.76897,3.02852 1.5489,1.24593 3.10014,2.51417 4.67253,3.75775 -1.78493,10.54637 -3.33501,21.11505 -3.73427,31.82464 3.56987,-0.35346 7.11625,-0.70458 10.68611,-1.03455 -0.23486,2.81831 -0.4932,5.66011 -0.72806,8.50191 -1.57356,-1.26824 -4.69719,-3.80472 -6.24609,-5.07062 -3.75776,5.2362 -6.50561,11.05954 -8.40797,17.21286 4.06307,0.25952 8.14845,0.51552 12.21152,0.75272 -3.56869,14.58478 -5.00838,31.24924 3.75775,43.58876 0.36638,0.51552 1.40798,1.2565 1.78611,1.76145 5.32426,7.10802 13.51851,9.18301 20.57369,6.88256 8.361,-2.72672 10.68729,-13.52909 12.77636,-21.98403 4.29793,3.82821 9.01978,6.29306 13.99763,1.59587 -0.23368,5.61432 2.86999,12.40998 -0.61063,16.81594 -2.59638,3.28686 -9.06323,0.45211 -12.16573,3.28921 -2.17715,1.99044 2.92753,7.37811 0.76799,9.41082 -7.24072,6.80976 -4.8933,12.72 -24.66025,12.13285 -4.20164,-0.1233 -14.87483,-1.1743 -18.78876,-4.30498 -15.78844,-12.62722 -29.68038,-38.77296 -27.42455,-61.15625 z"
       stroke-width="0.1875"
       stroke="#22409A"
       fill="#22409A"
       inkscape:connector-curvature="0" />
    <path
       id="path1048"
       d="m 358.61953,283.81349 c 4.22747,7.23368 8.26705,14.60709 12.96424,21.58242 5.07297,6.45864 11.32023,11.83927 17.07429,17.66261 0.77504,13.78626 2.88878,27.45626 4.15702,41.14857 -4.74417,15.64165 -10.78006,30.931 -14.79615,46.80633 -1.76145,5.37829 -3.45244,10.80237 -5.23737,16.18065 -4.74416,11.93087 -1.83308,24.98788 -5.26086,37.2041 -1.24475,-0.0728 -3.73426,-0.23603 -4.97902,-0.30766 -4.57858,-7.65643 -11.48346,-13.33885 -19.75051,-16.62806 -3.05435,1.45613 -6.10635,2.88995 -9.13604,4.39187 -0.82201,0.094 -2.4672,0.25952 -3.28803,0.32763 -2.65509,-1.64167 -5.309,-3.26337 -7.96174,-4.88508 1.36219,-6.55023 2.79483,-13.0805 4.25096,-19.60959 1.62053,-10.40311 6.64652,-19.96307 7.70339,-30.4836 1.38685,-18.95434 1.33987,-38.18933 5.47223,-56.79021 8.64166,-17.96441 13.52673,-37.45775 18.78759,-56.59998 z"
       stroke-width="0.1875"
       stroke="#22409A"
       fill="#22409A"
       inkscape:connector-curvature="0" />
    <path
       id="path1050"
       d="m 570.76698,297.0126 c 1.88122,3.49823 4.77,5.51803 8.64635,6.03472 -1.29407,2.77251 -2.56466,5.52037 -3.78476,8.31637 -3.71078,0.0458 -7.42156,0.11743 -11.11003,0.18789 0.16558,-0.94061 0.49555,-2.77252 0.65996,-3.71078 2.0879,-3.49941 3.92333,-7.11624 5.58848,-10.8282 z"
       stroke-width="0.1875"
       stroke="#22409A"
       fill="#22409A"
       inkscape:connector-curvature="0" />
    <path
       id="path1052"
       d="m 689.30177,320.12278 c 0.98641,0.21137 2.93574,0.65878 3.89866,0.86898 1.45378,16.18065 13.33885,29.31164 13.45863,45.65552 1.87653,4.44002 0.44506,8.97281 -1.00872,13.27074 -2.27931,-0.14209 -4.5598,-0.28183 -6.83441,-0.42157 0,-3.83056 -0.027,-7.65642 0,-11.4635 -2.61047,-2.58228 -5.21506,-5.14225 -7.84431,-7.67873 1.47726,-8.54771 3.45008,-17.14475 0.63294,-25.66897 l -2.257,0.13974 c 0,-4.90857 0,-9.79365 -0.0458,-14.70221 z"
       stroke-width="0.1875"
       stroke="#22409A"
       fill="#22409A"
       inkscape:connector-curvature="0" />
    <path
       id="path1054"
       d="m 291.75502,364.95747 c 1.10384,1.08035 1.10384,1.08035 0,0 z"
       stroke-width="0.1875"
       stroke="#22409A"
       fill="#22409A"
       inkscape:connector-curvature="0" />
    <path
       id="path1056"
       d="m 311.38927,452.74796 c 2.58346,-0.21137 5.1904,-0.42157 7.77385,-0.61063 2.98272,2.58228 5.75289,5.54386 9.32275,7.3511 6.50561,-0.89246 12.87031,-2.8418 19.51683,-2.58228 2.48951,1.99513 5.026,3.99261 7.58597,5.94312 -0.094,1.78494 -0.16441,3.56869 -0.25835,5.35363 -3.40546,0 -6.78744,0 -10.1929,-0.0235 -11.67252,-1.57356 -22.97044,-4.72068 -34.47739,-7.11742 0.23604,-2.77134 0.4709,-5.54386 0.72924,-8.31403 z"
       stroke-width="0.1875"
       stroke="#22409A"
       fill="#22409A"
       inkscape:connector-curvature="0" />
    <path
       id="path1058"
       d="m 529.95074,453.99272 c 5.47223,-0.11743 10.75657,1.22244 15.64164,3.64032 0.11509,3.02969 0.21138,6.05938 0.35347,9.1149 1.76145,-0.11978 5.33014,-0.32998 7.11507,-0.42392 0.21137,-2.8418 0.42157,-5.66012 0.65643,-8.50192 2.04563,-0.21137 4.08656,-0.42157 6.13336,-0.63294 1.36218,0.89246 4.08303,2.65391 5.44522,3.54638 -1.05452,4.34372 -1.61936,9.32275 -5.07297,12.56381 -4.83458,0.42157 -9.50946,-1.26589 -14.13737,-2.3486 v -1.24358 c -6.03706,-1.85774 -11.27091,-5.40412 -16.20648,-9.20649 0.0258,-1.62288 0.0481,-4.88626 0.0716,-6.50796 z"
       stroke-width="0.1875"
       stroke="#22409A"
       fill="#22409A"
       inkscape:connector-curvature="0" />
    <g
       id="_x23_f6f8fbff"
       transform="matrix(1.1742977,0,0,1.1742977,294.93971,144.47016)">
      <path
         id="path1061"
         d="m 130.789,-10.039 c 2.961,0.021 5.918,0.08 8.879,0.16 0,1.92 0,3.82 0,5.74 -1.738,-0.061 -3.48,-0.12 -5.199,-0.181 -1.242,-1.899 -2.461,-3.819 -3.68,-5.719 z"
         stroke-width="0.1875"
         stroke="#F6F8FB"
         fill="#F6F8FB"
         inkscape:connector-curvature="0" />
      <path
         id="path1063"
         d="m 149.809,-9.639 c 1.039,-0.12 3.098,-0.36 4.141,-0.48 l -0.141,2.58 c 1.461,-0.04 4.379,-0.1 5.84,-0.12 0.059,0.96 0.16,2.881 0.219,3.84 -3.199,-0.239 -6.398,-0.459 -9.598,-0.659 -0.161,-1.721 -0.301,-3.441 -0.461,-5.161 z"
         stroke-width="0.1875"
         stroke="#F6F8FB"
         fill="#F6F8FB"
         inkscape:connector-curvature="0" />
      <path
         id="path1065"
         d="m 73.788,-2.778 c 3.02,-1.74 6.039,-3.44 9.039,-5.2 6.12,0 12.2,0.899 18.141,2.3 5.859,3 11.62,6.2 17.04,9.92 -0.12,3.3 -0.28,6.62 -0.44,9.92 -1.6,0.061 -4.779,0.2 -6.359,0.28 -3.96,-4.78 -8.641,-9.141 -14.36,-11.7 -6.66,-1.44 -13.56,-0.48 -20.32,-0.62 -0.901,-1.641 -1.821,-3.261 -2.741,-4.9 z"
         stroke-width="0.1875"
         stroke="#F6F8FB"
         fill="#F6F8FB"
         inkscape:connector-curvature="0" />
      <path
         id="path1067"
         d="m 63.168,31.642 c 3.02,-1.521 6.02,-3.041 9.04,-4.561 -0.12,3.88 -0.24,7.78 -0.36,11.66 -2.46,-0.04 -4.9,-0.1 -7.34,-0.16 -5.96,2.92 -11.22,7.04 -15.58,12.04 -2.021,-0.82 -8.021,1.101 -5.34,-3.26 -0.04,-4 4.96,-4.3 7.5,-6.181 2.08,-3.26 2.56,-9.279 7.64,-8.92 1.099,-0.139 3.339,-0.459 4.44,-0.618 z"
         stroke-width="0.1875"
         stroke="#F6F8FB"
         fill="#F6F8FB"
         inkscape:connector-curvature="0" />
      <path
         id="path1069"
         d="m 264.988,31.241 c 0.461,-0.38 1.398,-1.16 1.859,-1.54 0.719,0.88 2.141,2.62 2.859,3.5 -0.059,0.84 -0.16,2.54 -0.219,3.399 -1.621,1.86 -3.238,3.74 -4.82,5.641 -4.262,-0.7 -8.48,-1.58 -12.699,-2.44 0.059,1.561 0.219,4.681 0.281,6.261 -2.32,-1 -4.66,-1.961 -7,-2.92 0.438,-0.32 1.359,-0.961 1.816,-1.301 0.98,-1.56 1.82,-4.68 4.301,-3.319 5.501,0.799 9.083,-5.061 13.622,-7.281 z"
         stroke-width="0.1875"
         stroke="#F6F8FB"
         fill="#F6F8FB"
         inkscape:connector-curvature="0" />
      <path
         id="path1071"
         d="m 236.027,56.701 c 2.539,-3.58 5.562,-6.9 10.082,-7.78 -0.281,1.94 -0.562,3.88 -0.859,5.801 -4.66,7 -3.781,15.76 -5.543,23.64 -2.117,-0.061 -6.34,-0.16 -8.438,-0.22 0.199,-4.521 1.758,-8.721 4.137,-12.541 0.242,-2.959 0.442,-5.94 0.621,-8.9 z"
         stroke-width="0.1875"
         stroke="#F6F8FB"
         fill="#F6F8FB"
         inkscape:connector-curvature="0" />
      <path
         id="path1073"
         d="m 161.449,68.562 c -0.043,-6.761 -5.16,-17.761 4.539,-20.08 0.262,5.899 -0.32,12.04 2.16,17.58 3.32,7.96 1.441,16.68 1.719,25.02 -1.418,-0.359 -4.277,-1.06 -5.699,-1.42 -0.461,-3.08 -0.578,-6.16 -0.719,-9.26 -2.52,-0.86 -5,-1.721 -7.5,-2.58 0.66,-4.46 -3.883,-12.8 4.141,-12.78 0.039,1.3 0.078,3.9 0.098,5.2 1.762,-0.42 3.539,-0.84 5.32,-1.26 -1.02,-0.121 -3.039,-0.321 -4.059,-0.42 z"
         stroke-width="0.1875"
         stroke="#F6F8FB"
         fill="#F6F8FB"
         inkscape:connector-curvature="0" />
      <path
         id="path1075"
         d="m 94.688,60.081 c 1.64,-3.72 6.021,-1.82 9.08,-2.22 -0.12,0.819 -0.32,2.5 -0.42,3.319 -0.62,1.141 -1.86,3.44 -2.48,4.58 -2.54,0.36 -5.079,0.721 -7.6,1.061 0.18,-2.26 0.36,-4.54 0.56,-6.8 z"
         stroke-width="0.1875"
         stroke="#F6F8FB"
         fill="#F6F8FB"
         inkscape:connector-curvature="0" />
      <path
         id="path1077"
         d="m 101.607,70.241 c 4.22,-1.46 7.681,0.2 10.061,3.88 -0.061,1.04 -0.141,3.16 -0.181,4.22 -2.14,-0.119 -4.279,-0.24 -6.42,-0.359 -1.139,-2.581 -2.299,-5.161 -3.46,-7.741 z"
         stroke-width="0.1875"
         stroke="#F6F8FB"
         fill="#F6F8FB"
         inkscape:connector-curvature="0" />
      <path
         id="path1079"
         d="m 235.309,88.961 c 2.52,-3.3 4.961,-7.02 9.32,-7.939 -0.223,2.72 -0.422,5.479 -0.641,8.22 5.121,8.06 -0.398,19.18 -7.641,24 -0.141,-1.32 -0.418,-3.98 -0.559,-5.3 -1.68,0.04 -5.062,0.12 -6.762,0.159 0.379,-3.079 0.922,-6.119 1.641,-9.119 2.859,-0.82 5.82,-1.26 8.762,-1.74 0.078,-0.8 0.219,-2.42 0.297,-3.22 -1.476,-1.681 -2.937,-3.38 -4.417,-5.061 z"
         stroke-width="0.1875"
         stroke="#F6F8FB"
         fill="#F6F8FB"
         inkscape:connector-curvature="0" />
      <path
         id="path1081"
         d="m 215.566,90.021 c 3.082,2.76 6.703,5.22 8.762,8.939 -1.48,5.04 -3.719,9.8 -5.621,14.681 -3.719,-7.36 -3.098,-15.64 -3.141,-23.62 z"
         stroke-width="0.1875"
         stroke="#F6F8FB"
         fill="#F6F8FB"
         inkscape:connector-curvature="0" />
      <path
         id="path1083"
         d="m 169.727,95.681 c 5.562,0.561 11.082,1.461 16.602,2.4 l 0.059,3.52 c -3.539,1.541 -7.059,3.181 -10.52,4.881 -0.777,3.399 -1.559,6.819 -2.277,10.24 l -4.16,-0.4 c 0.257,-6.881 0.178,-13.76 0.296,-20.641 z"
         stroke-width="0.1875"
         stroke="#F6F8FB"
         fill="#F6F8FB"
         inkscape:connector-curvature="0" />
      <path
         id="path1085"
         d="m 146.066,105.161 c 3.422,1.04 6.762,2.26 10.141,3.46 -0.219,1.66 -0.438,3.36 -0.66,5.04 -1.238,0.061 -3.699,0.18 -4.918,0.24 0.078,4.979 -2.941,8.58 -6.621,11.479 0.02,2.762 0.039,5.541 0.039,8.301 -2.68,-1.58 -5.297,-3.199 -7.918,-4.879 -0.961,-0.301 -2.922,-0.922 -3.879,-1.24 -0.102,-1.721 -0.203,-3.461 -0.301,-5.181 2.539,-0.819 5.059,-1.659 7.617,-2.46 0.801,-2.6 1.641,-5.199 2.461,-7.8 0.941,-0.04 2.801,-0.1 3.723,-0.14 0.078,-1.7 0.238,-5.12 0.316,-6.82 z"
         stroke-width="0.1875"
         stroke="#F6F8FB"
         fill="#F6F8FB"
         inkscape:connector-curvature="0" />
      <path
         id="path1087"
         d="m 208.77,120.581 c 2.879,0.36 5.699,1.16 8.539,1.8 1.258,4.2 3.578,8.401 2.82,12.921 -1.422,4.76 -3.699,9.18 -5.641,13.719 -0.859,5.859 -2.602,11.5 -4.781,16.98 -1.938,0.1 -5.777,0.32 -7.699,0.42 -1.5,-1.619 -3.02,-3.221 -4.539,-4.82 -1.121,-8.799 0.039,-17.721 5.719,-24.84 1.062,-5.6 2.179,-11.44 5.582,-16.18 z"
         stroke-width="0.1875"
         stroke="#F6F8FB"
         fill="#F6F8FB"
         inkscape:connector-curvature="0" />
      <path
         id="path1089"
         d="m 126.207,156.562 c 1.641,-0.182 3.281,-0.34 4.941,-0.521 0.602,0.941 1.781,2.82 2.359,3.762 0.102,1.1 0.281,3.26 0.359,4.34 -1.48,0 -4.418,0 -5.898,0 -0.48,0.68 -1.422,2.059 -1.88,2.76 0.001,-3.461 0.059,-6.902 0.119,-10.341 z"
         stroke-width="0.1875"
         stroke="#F6F8FB"
         fill="#F6F8FB"
         inkscape:connector-curvature="0" />
      <path
         id="path1091"
         d="m 275.449,195.942 c 1.098,-0.021 3.258,-0.041 4.34,-0.062 -0.742,2.721 -0.699,5.342 0.117,7.861 2.582,1.42 5.383,2.4 8.16,3.381 0.102,3.879 0.223,7.758 0.301,11.639 -2.02,-0.221 -4.039,-0.439 -6.039,-0.66 -0.359,-4.039 -0.102,-8.158 -1.078,-12.119 -0.941,0.18 -2.801,0.58 -3.723,0.779 l 0.859,-2.881 -2.52,0.201 c -0.139,-2.721 -0.276,-5.439 -0.417,-8.139 z"
         stroke-width="0.1875"
         stroke="#F6F8FB"
         fill="#F6F8FB"
         inkscape:connector-curvature="0" />
      <path
         id="path1093"
         d="m 124.107,222.981 c 2.779,1.66 6.002,3 7.92,5.801 -1.18,4.578 -3.059,8.959 -4.621,13.439 -2.879,-1.682 -5.738,-3.381 -8.618,-5 -3.641,-1.301 -6.82,-3.381 -8.061,-7.32 4.4,-0.1 8.8,0.061 13.18,0.299 0.061,-1.799 0.141,-5.418 0.2,-7.219 z"
         stroke-width="0.1875"
         stroke="#F6F8FB"
         fill="#F6F8FB"
         inkscape:connector-curvature="0" />
      <path
         id="path1095"
         d="m 310.027,256.681 c 1.52,0.041 3.062,0.102 4.602,0.16 1.359,1.76 2.738,3.52 4.121,5.301 -2.703,1.359 -5.684,1.939 -8.66,2.301 -0.063,-2.602 -0.063,-5.182 -0.063,-7.762 z"
         stroke-width="0.1875"
         stroke="#F6F8FB"
         fill="#F6F8FB"
         inkscape:connector-curvature="0" />
    </g>
    <g
       id="g1140"
       transform="matrix(1.1742977,0,0,1.1742977,294.93971,144.47016)">
      <path
         id="path1098"
         d="m 111.668,74.121 c -2.38,-3.68 -5.841,-5.34 -10.061,-3.88 1.16,2.58 2.32,5.16 3.46,7.74 2.141,0.119 4.28,0.24 6.42,0.359 0.04,-1.059 0.12,-3.179 0.181,-4.219 z"
         fill="none"
         inkscape:connector-curvature="0" />
      <path
         id="path1100"
         d="m 118.788,237.222 c 2.88,1.619 5.739,3.318 8.618,5 1.562,-4.48 3.441,-8.861 4.621,-13.439 -1.918,-2.801 -5.141,-4.141 -7.92,-5.801 -0.06,1.801 -0.14,5.42 -0.2,7.219 -4.38,-0.238 -8.779,-0.398 -13.18,-0.299 1.241,3.939 4.42,6.019 8.061,7.32 z"
         fill="none"
         inkscape:connector-curvature="0" />
      <path
         id="path1102"
         d="m 103.768,57.861 c -3.06,0.399 -7.44,-1.5 -9.08,2.22 l -0.86,-0.06 c -0.199,2.26 -0.38,4.54 -0.56,6.8 2.521,-0.34 5.06,-0.7 7.6,-1.061 0.62,-1.14 1.86,-3.439 2.48,-4.58 0.099,-0.819 0.299,-2.499 0.42,-3.319 z"
         fill="none"
         inkscape:connector-curvature="0" />
      <path
         id="path1104"
         d="m 139.668,-9.879 c -2.961,-0.08 -5.918,-0.14 -8.879,-0.16 1.219,1.9 2.438,3.82 3.68,5.72 1.719,0.061 3.461,0.12 5.199,0.181 0,-1.921 0,-3.821 0,-5.741 z"
         fill="none"
         inkscape:connector-curvature="0" />
      <path
         id="path1106"
         d="m 159.867,-3.819 c -0.059,-0.959 -0.16,-2.88 -0.219,-3.84 -1.461,0.021 -4.379,0.08 -5.84,0.12 l 0.141,-2.58 c -1.043,0.12 -3.102,0.36 -4.141,0.48 0.16,1.72 0.301,3.439 0.461,5.16 3.2,0.201 6.399,0.42 9.598,0.66 z"
         fill="none"
         inkscape:connector-curvature="0" />
      <path
         id="path1108"
         d="m -0.192,39.121 c -0.12,1.14 0.335,3.742 -0.46,4.54 -1.406,1.411 -3.96,0.46 -5.94,0.68 0,-0.939 -0.486,-2.984 0.021,-3.8 1.86,-2.993 6.28,-3.14 9.42,-4.74 -1.3,-2.18 -2.62,-4.319 -3.92,-6.5 -0.46,0.5 -1.38,1.48 -1.84,1.98 -2.42,1.5 -4.8,3.04 -7.2,4.58 0.5,4.78 0.2,9.56 -1.98,13.92 5.92,0.24 13.479,4.592 17.74,0.479 2.32,-2.239 0.3,-6.42 0.4,-9.64 0.92,-0.64 2.779,-1.94 3.7,-2.58 0.06,-1.04 0.199,-3.1 0.279,-4.12 -1.76,0.16 -3.52,0.34 -5.26,0.5 -1.621,1.601 -3.281,3.161 -4.96,4.701 z"
         fill="none"
         inkscape:connector-curvature="0" />
      <path
         id="path1110"
         d="m 96.848,2.741 c 5.72,2.56 10.4,6.92 14.36,11.7 1.58,-0.08 4.76,-0.22 6.359,-0.28 0.16,-3.3 0.32,-6.62 0.44,-9.92 -5.42,-3.72 -11.181,-6.92 -17.04,-9.92 -5.94,-1.4 -12.021,-2.3 -18.141,-2.3 -3,1.76 -6.02,3.46 -9.039,5.2 0.92,1.64 1.84,3.26 2.739,4.899 6.762,0.141 13.662,-0.819 20.322,0.621 z"
         fill="none"
         inkscape:connector-curvature="0" />
      <path
         id="path1112"
         d="m 85.027,111.081 c 0.66,-5.18 1.24,-10.359 2.36,-15.46 0.22,-1.58 0.46,-3.16 0.68,-4.74 1.141,-2.6 2.28,-5.2 3.46,-7.8 1.24,-3.82 2.4,-7.7 3.221,-11.64 -3.62,1.54 -7.141,3.26 -10.7,4.96 -3.04,5.5 -6.721,10.939 -6.82,17.46 -1.64,2.979 -3.34,5.92 -5.08,8.819 -0.24,1.061 -0.72,3.181 -0.96,4.24 -2.42,4.141 -3.76,8.721 -4.02,13.5 1.26,0.62 2.52,1.26 3.779,1.88 1.4,-3.12 2.801,-6.26 4.38,-9.3 0.66,-2.7 1.28,-5.4 1.961,-8.08 0.92,11.821 5.859,16.001 7.739,6.161 z"
         fill="none"
         inkscape:connector-curvature="0" />
      <path
         id="path1114"
         d="m 131.148,156.04 c -1.66,0.182 -3.301,0.34 -4.941,0.521 -0.06,3.439 -0.118,6.881 -0.118,10.34 0.458,-0.701 1.399,-2.08 1.88,-2.76 1.48,0 4.418,0 5.898,0 -0.078,-1.08 -0.258,-3.24 -0.359,-4.34 -0.578,-0.941 -1.758,-2.82 -2.36,-3.761 z"
         fill="none"
         inkscape:connector-curvature="0" />
      <path
         id="path1116"
         d="m 58.728,32.261 c -5.08,-0.359 -5.56,5.66 -7.64,8.92 -2.54,1.881 -7.54,2.181 -7.5,6.181 -2.681,4.36 3.319,2.439 5.34,3.26 4.36,-5 9.62,-9.12 15.58,-12.04 2.439,0.061 4.88,0.12 7.34,0.16 0.12,-3.88 0.24,-7.78 0.36,-11.66 -3.021,1.52 -6.021,3.04 -9.04,4.561 -1.101,0.158 -3.341,0.478 -4.44,0.618 z"
         fill="none"
         inkscape:connector-curvature="0" />
      <path
         id="path1118"
         d="m 318.75,262.142 c -1.383,-1.781 -2.762,-3.541 -4.121,-5.301 -1.539,-0.059 -3.082,-0.119 -4.602,-0.16 0,2.58 0,5.16 0.062,7.762 2.977,-0.362 5.958,-0.942 8.661,-2.301 z"
         fill="none"
         inkscape:connector-curvature="0" />
      <path
         id="path1120"
         d="m 236.027,56.701 c -0.18,2.96 -0.379,5.94 -0.621,8.899 -2.379,3.82 -3.938,8.021 -4.137,12.541 2.098,0.06 6.32,0.159 8.438,0.22 1.762,-7.88 0.883,-16.64 5.543,-23.64 0.297,-1.921 0.578,-3.86 0.859,-5.801 -4.519,0.881 -7.543,4.201 -10.082,7.781 z"
         fill="none"
         inkscape:connector-curvature="0" />
      <path
         id="path1122"
         d="m 264.988,31.241 c -4.539,2.22 -8.121,8.08 -13.621,7.28 -2.48,-1.36 -3.32,1.76 -4.301,3.319 -0.457,0.34 -1.379,0.98 -1.816,1.301 2.34,0.959 4.68,1.92 7,2.92 -0.062,-1.58 -0.223,-4.7 -0.281,-6.261 4.219,0.86 8.438,1.74 12.699,2.44 1.582,-1.9 3.199,-3.78 4.82,-5.641 0.059,-0.859 0.16,-2.56 0.219,-3.399 -0.719,-0.88 -2.141,-2.62 -2.859,-3.5 -0.461,0.381 -1.399,1.161 -1.86,1.541 z"
         fill="none"
         inkscape:connector-curvature="0" />
      <path
         id="path1124"
         d="m 279.906,203.741 c -0.816,-2.52 -0.859,-5.141 -0.117,-7.861 -1.082,0.021 -3.242,0.041 -4.34,0.062 0.141,2.699 0.277,5.418 0.418,8.139 l 2.52,-0.201 -0.859,2.881 c 0.922,-0.199 2.781,-0.6 3.723,-0.779 0.977,3.961 0.719,8.08 1.078,12.119 2,0.221 4.02,0.439 6.039,0.66 -0.078,-3.881 -0.199,-7.76 -0.301,-11.639 -2.778,-0.98 -5.579,-1.961 -8.161,-3.381 z"
         fill="none"
         inkscape:connector-curvature="0" />
      <path
         id="path1126"
         d="m 145.75,111.981 c -0.922,0.04 -2.781,0.1 -3.723,0.14 -0.82,2.601 -1.66,5.2 -2.461,7.8 -2.559,0.801 -5.078,1.641 -7.617,2.46 0.098,1.72 0.199,3.46 0.301,5.181 0.957,0.318 2.918,0.939 3.879,1.24 2.621,1.68 5.238,3.299 7.918,4.879 0,-2.76 -0.02,-5.539 -0.039,-8.301 3.68,-2.898 6.699,-6.499 6.621,-11.479 1.219,-0.061 3.68,-0.18 4.918,-0.24 0.223,-1.68 0.441,-3.38 0.66,-5.04 -3.379,-1.2 -6.719,-2.42 -10.141,-3.46 -0.078,1.7 -0.238,5.12 -0.316,6.82 z"
         fill="none"
         inkscape:connector-curvature="0" />
      <path
         id="path1128"
         d="m 244.629,81.021 c -4.359,0.92 -6.801,4.64 -9.32,7.939 1.48,1.681 2.941,3.38 4.418,5.061 -0.078,0.8 -0.219,2.42 -0.297,3.22 -2.941,0.48 -5.902,0.92 -8.762,1.74 -0.719,3 -1.262,6.04 -1.641,9.119 1.699,-0.039 5.082,-0.119 6.762,-0.159 0.141,1.319 0.418,3.979 0.559,5.3 7.242,-4.82 12.762,-15.94 7.641,-24 0.218,-2.74 0.417,-5.5 0.64,-8.22 z"
         fill="none"
         inkscape:connector-curvature="0" />
      <path
         id="path1130"
         d="m 168.148,66.062 c -2.48,-5.54 -1.898,-11.681 -2.16,-17.58 -9.699,2.319 -4.582,13.319 -4.539,20.08 1.02,0.1 3.039,0.3 4.059,0.42 -1.781,0.42 -3.559,0.84 -5.32,1.26 -0.02,-1.3 -0.059,-3.9 -0.098,-5.2 -8.023,-0.02 -3.48,8.32 -4.141,12.78 2.5,0.859 4.98,1.72 7.5,2.58 0.141,3.1 0.258,6.18 0.719,9.26 1.422,0.36 4.281,1.061 5.699,1.42 -0.277,-8.341 1.602,-17.061 -1.719,-25.02 z"
         fill="none"
         inkscape:connector-curvature="0" />
      <path
         id="path1132"
         d="m 169.727,95.681 c -0.117,6.881 -0.039,13.761 -0.297,20.641 l 4.16,0.4 c 0.719,-3.421 1.5,-6.841 2.277,-10.24 3.461,-1.7 6.98,-3.34 10.52,-4.881 l -0.059,-3.52 c -5.519,-0.939 -11.039,-1.84 -16.601,-2.4 z"
         fill="none"
         inkscape:connector-curvature="0" />
      <path
         id="path1134"
         d="m 208.77,120.581 c -3.402,4.74 -4.52,10.58 -5.582,16.18 -5.68,7.119 -6.84,16.041 -5.719,24.84 1.52,1.6 3.039,3.201 4.539,4.82 1.922,-0.1 5.762,-0.32 7.699,-0.42 2.18,-5.48 3.922,-11.121 4.781,-16.98 1.941,-4.539 4.219,-8.959 5.641,-13.719 0.758,-4.52 -1.562,-8.721 -2.82,-12.921 -2.84,-0.64 -5.661,-1.44 -8.539,-1.8 z"
         fill="none"
         inkscape:connector-curvature="0" />
      <path
         id="path1136"
         d="m 215.566,90.021 c 0.043,7.979 -0.578,16.26 3.141,23.62 1.902,-4.881 4.141,-9.641 5.621,-14.681 -2.058,-3.719 -5.68,-6.179 -8.762,-8.939 z"
         fill="none"
         inkscape:connector-curvature="0" />
      <path
         id="path1138"
         d="m 332.547,132.661 c 0.461,0.061 1.359,0.199 1.82,0.26 -0.418,-3.26 -0.84,-6.5 -1.359,-9.72 -6.258,-13.36 -9.801,-27.68 -11.719,-42.26 -2.562,-7.2 -5.18,-14.46 -8.961,-21.12 -5.441,-8.54 -14.359,-13.88 -21.52,-20.78 -16.5,-14.979 -36.082,-25.6 -55.121,-36.88 -18.418,-9.48 -38.898,-13.939 -59.098,-17.76 -11.883,-1.061 -23.922,-3.38 -35.82,-1.28 -5.762,0.979 -11.602,1.08 -17.422,1.2 0.96,3.64 1.96,7.24 2.879,10.88 3.961,2.5 7.801,5.2 11.66,7.82 -0.137,1.359 -0.277,2.72 -0.418,4.079 -12.501,8.561 -20.001,21.961 -29.901,33.061 -7.2,7.76 -10.819,19.16 -21.58,23.08 -0.06,-1.94 -0.12,-3.9 -0.18,-5.84 4.7,-5.301 9.68,-10.38 13.8,-16.16 1.96,-4.82 -0.7,-9.88 -1.939,-14.54 -1.62,-0.28 -4.88,-0.88 -6.5,-1.16 1.02,-2.34 2.18,-4.6 3.52,-6.76 3.84,-1.601 7.76,0.5 11.44,1.56 -0.9,4.32 -1.9,8.62 -2.521,12.98 3.86,-1.88 6.46,-5.26 9.04,-8.521 5.2,-6.72 11.18,-12.779 17.122,-18.859 -0.121,-0.681 -0.32,-2.04 -0.441,-2.72 C 125.107,0.66 120.947,-2 116.727,-4.54 c -3.4,-1.28 -6.78,-2.56 -10.16,-3.819 -9.96,-6.721 -22.24,-6.341 -33.3,-2.881 -2.78,2.36 -5.66,4.58 -8.5,6.86 -5.74,0.92 -11.54,0.68 -17.3,0.479 0.14,-1.659 0.3,-3.3 0.439,-4.959 1.181,-0.841 3.521,-2.5 4.681,-3.341 3.819,0.8 7.54,1.9 11.319,2.86 -0.159,-1.34 -0.5,-4.04 -0.659,-5.4 1.3,0.381 3.92,1.101 5.22,1.461 -0.38,-0.721 -1.12,-2.16 -1.5,-2.9 -8.641,-2.38 -17.08,-6.46 -26.24,-6.12 -12.64,0.8 -25.56,-1.06 -37.76,3.26 -1.061,-2.22 -2.24,-4.38 -3.521,-6.479 -11.04,-1.54 -23.479,7.18 -24,18.68 1.16,4.18 4.44,7.82 4.021,12.38 -2.88,0.601 -5.76,1.06 -8.66,1.4 -7.62,10.68 -12.74,23.08 -13.6,36.26 -4.94,13.22 -12.4,25.26 -18.12,38.12 -0.721,1.88 -1.44,3.76 -2.16,5.64 -1.601,4.34 -2.82,8.82 -3.64,13.38 4.579,-1.06 9.159,-2.14 13.6,-3.68 2.479,-0.26 4.96,-0.52 7.46,-0.74 1.46,-1.74 2.94,-3.479 4.38,-5.24 6.16,-1.58 12.28,-3.26 18.46,-4.739 1.8,-2.521 3.64,-5.021 5.46,-7.521 1.72,-0.279 3.46,-0.54 5.22,-0.82 -0.04,1.181 -0.1,3.541 -0.14,4.721 -0.979,-0.021 -2.96,-0.021 -3.939,-0.021 -0.021,1.9 -0.021,3.82 -0.04,5.74 4.56,0.2 9.14,0.601 13.579,1.7 4.74,-2.4 9.44,-4.92 14.24,-7.22 -0.42,5.54 -4.62,8.96 -7.6,13.1 -0.28,2.66 -0.4,5.32 -0.34,8 3.38,-2.94 6.14,-6.521 7.399,-10.88 8,-1.641 15.641,-4.76 23.8,-5.6 1.461,1.459 2.94,2.92 4.4,4.38 0.2,-1.82 0.6,-5.48 0.82,-7.32 1.18,0.021 3.58,0.06 4.779,0.06 1.5,-2.039 3.021,-4.08 4.58,-6.1 -0.1,-2.6 -0.199,-5.2 -0.3,-7.8 2.22,-0.9 4.44,-1.761 6.66,-2.64 0.06,-1.421 0.2,-4.28 0.28,-5.7 2.779,-0.04 5.56,-0.061 8.359,-0.061 -0.199,-2.819 -0.399,-5.64 -0.64,-8.46 -1.24,-2.54 -2.4,-5.14 -3.56,-7.72 2.479,0.1 4.939,0.22 7.42,0.34 2.22,6.16 2.779,12.7 2.52,19.22 2.12,6.101 4.521,12.08 6.62,18.2 -1.94,-0.58 -5.86,-1.72 -7.82,-2.3 -1.64,-2.94 -2.46,-6.24 -3.58,-9.4 -1,0.181 -3.02,0.54 -4.04,0.721 0.36,4.699 2.461,8.859 5.261,12.56 3.739,1.021 5.34,3.88 5.54,7.58 -0.86,1.68 -2.58,5.04 -3.44,6.72 -2.76,-0.74 -5.479,-1.6 -8.16,-2.56 -1.02,-0.22 -3.04,-0.66 -4.06,-0.88 -2.76,-3.021 -5.62,-5.96 -8.561,-8.82 -2.359,3.46 -1.52,6.98 1.12,10 2.3,3.84 4.34,7.82 6.08,11.939 6.7,11.32 12.62,23.381 21.98,32.82 0.387,-0.021 0.776,-0.031 1.164,-0.053 0,0 -0.062,-1.445 -0.084,-1.447 -0.54,-11.82 0.04,-23.68 -0.88,-35.5 -0.681,2.68 -1.301,5.38 -1.961,8.08 -1.579,3.04 -2.979,6.18 -4.38,9.3 -1.26,-0.62 -2.52,-1.26 -3.779,-1.88 0.26,-4.779 1.6,-9.359 4.02,-13.5 0.24,-1.06 0.72,-3.18 0.96,-4.24 1.74,-2.899 3.44,-5.84 5.08,-8.819 0.1,-6.521 3.78,-11.96 6.82,-17.46 3.56,-1.7 7.08,-3.42 10.7,-4.96 -0.82,3.939 -1.98,7.819 -3.221,11.64 -1.18,2.6 -2.319,5.2 -3.46,7.8 -0.22,1.58 -0.46,3.16 -0.68,4.74 -1.12,5.101 -1.7,10.28 -2.36,15.46 -1.88,9.84 0.812,19.877 0.653,29.838 -0.036,-0.004 -0.091,0.623 -0.053,0.621 -0.96,18.801 3.819,37.182 4.439,55.881 1.3,8.041 5.8,15.361 5.84,23.6 0.28,11.381 -0.159,22.762 -0.399,34.141 2.72,-2.76 5.04,-6.199 9.2,-6.98 -0.761,4.859 -2.28,9.561 -3.44,14.34 3.46,-0.18 7.12,-0.1 10.12,-2.141 3.04,-0.158 6.08,-0.199 9.14,-0.18 1.681,1.602 2.92,4.762 5.84,4.021 3.281,-2.42 5.801,-6.08 10.141,-6.779 -0.82,4.619 -3.18,8.699 -5.68,12.598 -2.699,0.102 -5.4,0.221 -8.101,0.32 -2.06,-1.578 -4.04,-3.279 -6.28,-4.6 -3.38,0.381 -6.06,2.66 -8.899,4.279 -0.82,0.041 -2.48,0.102 -3.3,0.141 -4.061,-2.898 -8.2,-6.939 -13.66,-5.801 -0.58,2.361 -0.92,4.781 -1.28,7.182 3.82,1.439 7.66,2.84 11.48,4.318 9.52,0.422 19.06,0.32 28.599,0.281 3.68,-2.58 7.34,-5.199 10.781,-8.1 0.082,-10.682 -6.199,-20.16 -6.059,-30.861 -1.262,-18.6 2.18,-36.959 4.199,-55.359 -2.801,0.26 -5.602,0.539 -8.402,0.84 -0.457,5 -0.137,10 0.141,15 -10.1,-2.82 -5.879,-14.42 -6.18,-21.898 2.582,-1.561 5.262,-2.941 8.039,-4.16 2.141,2.639 4.941,4.539 8.023,5.979 0.059,-5.539 -0.422,-11.08 0.098,-16.6 1.102,-4.719 4.621,-8.359 6.262,-12.859 3.68,-5.941 8.48,-11.041 12.578,-16.68 2.84,-4.24 5.723,-8.48 9.242,-12.181 3.66,4.64 7.859,2.84 11.52,-0.36 5.801,-2.74 11.719,-6.199 11.359,-13.56 3.559,-4.761 6.102,-10.12 7.68,-15.84 1.738,1.2 3.461,2.399 5.141,3.7 -0.281,3.52 -1.5,6.84 -2.441,10.22 -1.098,2.2 -2.98,4.2 -3.199,6.739 1.059,2.381 2.461,4.601 3.801,6.86 -0.02,1.62 -0.039,4.9 -0.039,6.521 -2,2.4 -4,4.799 -6.023,7.18 -0.078,2.9 -0.156,5.799 -0.238,8.701 -3.141,6.059 -8.238,11.639 -7.762,18.898 -0.719,0.061 -2.156,0.18 -2.879,0.24 -5.258,4.48 -10.578,0.16 -14.418,-3.701 -7.801,-3.719 -16.141,-6.379 -24.801,-3.799 0.238,1.52 0.699,4.58 0.941,6.1 l 1.34,-1 c 7.699,4.32 16.539,5.4 24.758,8.381 6.68,3 13.859,4.721 20.559,7.721 10.703,5.16 23.082,8.219 30.582,18.219 0.879,15.02 -0.199,30.16 -5.34,44.4 -3.02,7.721 -8.941,14.779 -9.121,23.32 3.723,3.318 8.801,5.74 13.102,1.879 3.879,0 7.539,1.201 11.098,2.66 0.363,5.461 0.461,10.939 0.422,16.42 3.539,-0.98 7.602,-1.52 10,-4.641 6.141,-6.139 5.32,-15.398 5.379,-23.34 -0.16,-11.32 2.66,-22.34 5,-33.32 -1.598,-0.119 -4.777,-0.359 -6.359,-0.479 0.082,7.279 -4.461,13.199 -8.48,18.82 -1.84,0.02 -5.52,0.039 -7.359,0.061 -1.898,-2.301 -3.738,-4.641 -5.539,-7.021 3.039,-6.18 9.34,-5.699 15.16,-5.221 -0.102,-0.939 -0.301,-2.799 -0.402,-3.738 -2.879,0.16 -5.738,0.32 -8.617,0.5 0.34,-2.24 0.68,-4.5 1.02,-6.721 2.117,-0.041 4.238,-0.08 6.359,-0.1 -0.16,-0.881 -0.5,-2.621 -0.66,-3.5 -1.641,-0.121 -4.922,-0.381 -6.559,-0.52 0.316,-1.221 0.957,-3.66 1.277,-4.881 4.121,1.74 8.02,3.861 12.02,5.861 -0.258,-4.082 -1.258,-8.041 -2.84,-11.801 -0.52,-0.34 -1.598,-1.02 -2.141,-1.359 0.242,-3.221 0.441,-6.441 0.621,-9.682 1.602,0.16 3.199,0.32 4.801,0.48 2.922,5.221 6.379,10.1 9.699,15.061 3.281,0.76 6.801,3.939 9.941,1.219 3.16,-3.578 -2.68,-5.84 -4.422,-8.578 -0.16,-1.201 -0.5,-3.621 -0.66,-4.84 -2.418,-1.521 -4.797,-3.041 -7.199,-4.562 -0.281,-4.418 -0.52,-8.84 -0.68,-13.238 -4.859,0.219 -9.699,0.58 -14.539,0.5 -1.602,1.641 -3.121,3.379 -4.641,5.119 -0.699,0.16 -2.102,0.461 -2.801,0.619 0,-5.398 3.801,-10.219 8.34,-12.859 -0.02,-1.398 -0.039,-4.18 -0.059,-5.559 -3.941,-1.9 -3.82,-6.561 -4.941,-10.082 -6,5.121 -5.418,13 -5.617,20.102 -1.844,0.42 -3.703,0.84 -5.543,1.26 -1.32,-2.619 -2.82,-5.141 -3.801,-7.881 1,-12.16 3.922,-24.059 6.641,-35.939 3.02,-1.881 6.02,-3.779 9,-5.68 0.301,2.1 0.883,6.299 1.18,8.4 1.602,-2.102 4.82,-6.281 6.422,-8.36 0.219,3.001 0.441,5.979 0.641,9.001 l 1.98,-0.422 c 0.277,4.121 -2.062,10.16 3.719,11.221 0.039,4.061 0.141,8.119 0.398,12.18 1.762,1.361 3.543,2.76 5.301,4.141 0.16,3.58 0.359,7.16 0.582,10.76 0.898,-0.061 2.699,-0.16 3.598,-0.199 1.5,4.52 2.32,9.219 1.961,14 3.641,0.84 7.262,1.799 10.879,2.738 -0.398,2.881 -0.84,5.742 -1.398,8.602 -0.98,4.48 -1.922,8.98 -2.859,13.459 6,4.34 12.277,8.92 15.957,15.5 2.203,5.939 1.98,12.4 2.801,18.6 -0.539,4.121 -0.957,8.221 -1.32,12.34 -1.758,4.32 -3.438,8.66 -5.039,13.041 3.582,0.02 7.141,0.041 10.742,0.1 3.719,2.781 8.039,2.76 11.977,0.359 1.703,-0.18 5.121,-0.52 6.84,-0.699 2.441,2.98 8.422,6.641 4.562,10.781 -3.379,3.34 -4.16,-2.221 -5.84,-4.301 -1.699,-0.18 -3.422,-0.381 -5.121,-0.539 -1.602,2.359 -3.199,4.699 -4.758,7.098 -4.582,-0.379 -7.82,-3.238 -10.344,-6.818 -2.898,-0.021 -5.797,0.02 -8.699,0.1 0.02,2.42 0.062,4.84 0.121,7.26 14.32,1.84 29.84,4.561 43.398,-2.02 1.523,-2.119 3.043,-4.24 4.602,-6.34 0.078,-7.361 1,-14.98 -1.48,-22.08 -0.461,-5.881 -0.801,-11.762 -1.121,-17.641 -3.66,1.24 -7.32,2.461 -11.137,3.061 0.977,-8.42 -0.703,-16.521 -3.043,-24.561 2.062,0 4.121,0.02 6.18,0.039 0.723,5.242 1.961,10.381 3.902,15.32 1.418,-5.279 1.039,-10.719 0.277,-16.059 -5.699,-27.48 -8.617,-56.201 -3.438,-84.02 1.738,-8.361 -2.422,-16.182 -4.801,-23.941 -2.801,-9.24 -10.059,-16.26 -12.738,-25.56 4.68,0.92 9.32,2.08 14.02,2.899 0.957,1.2 2.879,3.58 3.84,4.761 -1.039,3.14 -2.883,6.14 -2.883,9.54 3.523,13.499 10.863,25.379 17.14,37.679 z M 9.748,38.041 c -0.921,0.64 -2.78,1.94 -3.7,2.58 -0.101,3.22 1.92,7.4 -0.4,9.64 -4.261,4.112 -11.82,-0.239 -17.74,-0.479 2.181,-4.36 2.48,-9.14 1.98,-13.92 2.4,-1.54 4.78,-3.08 7.2,-4.58 0.46,-0.5 1.38,-1.48 1.84,-1.98 1.3,2.181 2.62,4.32 3.92,6.5 -3.14,1.601 -7.56,1.747 -9.42,4.74 -0.507,0.815 -0.021,2.86 -0.021,3.8 1.98,-0.22 4.534,0.731 5.94,-0.68 0.795,-0.798 0.34,-3.4 0.46,-4.54 1.68,-1.54 3.34,-3.1 4.96,-4.7 1.74,-0.16 3.5,-0.34 5.26,-0.5 -0.08,1.019 -0.219,3.079 -0.279,4.119 z m 62.1,0.7 c -2.46,-0.04 -4.9,-0.1 -7.34,-0.16 -5.96,2.92 -11.22,7.04 -15.58,12.04 -2.021,-0.82 -8.021,1.101 -5.34,-3.26 -0.04,-4 4.96,-4.3 7.5,-6.181 2.08,-3.26 2.56,-9.279 7.64,-8.92 1.1,-0.14 3.34,-0.46 4.44,-0.619 3.02,-1.521 6.02,-3.041 9.04,-4.561 -0.12,3.881 -0.24,7.781 -0.36,11.661 z m 4.679,-36.62 c -0.899,-1.64 -1.819,-3.26 -2.739,-4.899 3.02,-1.74 6.039,-3.44 9.039,-5.2 6.12,0 12.2,0.899 18.141,2.3 5.859,3 11.62,6.2 17.04,9.92 -0.12,3.3 -0.28,6.62 -0.44,9.92 -1.6,0.061 -4.779,0.2 -6.359,0.28 -3.96,-4.78 -8.641,-9.141 -14.36,-11.7 C 90.188,1.301 83.288,2.261 76.527,2.121 Z m 16.741,64.7 c 0.18,-2.26 0.36,-4.54 0.56,-6.8 l 0.86,0.06 c 1.64,-3.72 6.021,-1.82 9.08,-2.22 -0.12,0.819 -0.32,2.5 -0.42,3.319 -0.62,1.141 -1.86,3.44 -2.48,4.58 -2.541,0.361 -5.08,0.721 -7.6,1.061 z m 8.339,3.42 c 4.22,-1.46 7.681,0.2 10.061,3.88 -0.061,1.04 -0.141,3.16 -0.181,4.22 -2.14,-0.119 -4.279,-0.24 -6.42,-0.359 -1.139,-2.581 -2.299,-5.161 -3.46,-7.741 z m 22.3,159.959 c 0.061,-1.799 0.141,-5.418 0.2,-7.219 2.779,1.66 6.002,3 7.92,5.801 -1.18,4.578 -3.059,8.959 -4.621,13.439 -2.879,-1.682 -5.738,-3.381 -8.618,-5 -3.641,-1.301 -6.82,-3.381 -8.061,-7.32 4.401,-0.099 8.8,0.061 13.18,0.299 z m 30.042,-240.319 -0.141,2.58 c 1.461,-0.04 4.379,-0.1 5.84,-0.12 0.059,0.96 0.16,2.881 0.219,3.84 -3.199,-0.239 -6.398,-0.459 -9.598,-0.659 -0.16,-1.721 -0.301,-3.44 -0.461,-5.16 1.04,-0.121 3.098,-0.361 4.141,-0.481 z m -19.48,5.8 c -1.242,-1.899 -2.461,-3.819 -3.68,-5.72 2.961,0.021 5.918,0.08 8.879,0.16 0,1.92 0,3.82 0,5.74 -1.738,-0.06 -3.48,-0.12 -5.199,-0.18 z m -6.5,168.461 c -0.48,0.68 -1.422,2.059 -1.88,2.76 0,-3.459 0.059,-6.9 0.118,-10.34 1.641,-0.182 3.281,-0.34 4.941,-0.521 0.602,0.941 1.781,2.82 2.359,3.762 0.102,1.1 0.281,3.26 0.359,4.34 -1.479,-0.001 -4.417,-0.001 -5.897,-0.001 z m 27.578,-50.481 c -1.238,0.061 -3.699,0.18 -4.918,0.24 0.078,4.979 -2.941,8.58 -6.621,11.479 0.02,2.762 0.039,5.541 0.039,8.301 -2.68,-1.58 -5.297,-3.199 -7.918,-4.879 -0.961,-0.301 -2.922,-0.922 -3.879,-1.24 -0.102,-1.721 -0.203,-3.461 -0.301,-5.181 2.539,-0.819 5.059,-1.659 7.617,-2.46 0.801,-2.6 1.641,-5.199 2.461,-7.8 0.941,-0.04 2.801,-0.1 3.723,-0.14 0.078,-1.7 0.238,-5.12 0.316,-6.82 3.422,1.04 6.762,2.26 10.141,3.46 -0.219,1.66 -0.437,3.36 -0.66,5.04 z m 8.621,-24 c -0.461,-3.08 -0.578,-6.16 -0.719,-9.26 -2.52,-0.86 -5,-1.721 -7.5,-2.58 0.66,-4.46 -3.883,-12.8 4.141,-12.78 0.039,1.3 0.078,3.9 0.098,5.2 1.762,-0.42 3.539,-0.84 5.32,-1.26 -1.02,-0.12 -3.039,-0.32 -4.059,-0.42 -0.043,-6.761 -5.16,-17.761 4.539,-20.08 0.262,5.899 -0.32,12.04 2.16,17.58 3.32,7.96 1.441,16.68 1.719,25.02 -1.418,-0.359 -4.277,-1.06 -5.699,-1.42 z m 11.699,16.82 c -0.777,3.399 -1.559,6.819 -2.277,10.24 l -4.16,-0.4 c 0.258,-6.88 0.18,-13.76 0.297,-20.641 5.562,0.561 11.082,1.461 16.602,2.4 l 0.059,3.52 c -3.54,1.542 -7.06,3.181 -10.521,4.881 z m 44.262,28.821 c -1.422,4.76 -3.699,9.18 -5.641,13.719 -0.859,5.859 -2.602,11.5 -4.781,16.98 -1.938,0.1 -5.777,0.32 -7.699,0.42 -1.5,-1.619 -3.02,-3.221 -4.539,-4.82 -1.121,-8.799 0.039,-17.721 5.719,-24.84 1.062,-5.6 2.18,-11.439 5.582,-16.18 2.879,0.36 5.699,1.16 8.539,1.8 1.257,4.2 3.578,8.401 2.82,12.921 z m -1.422,-21.66 c -3.719,-7.36 -3.098,-15.641 -3.141,-23.62 3.082,2.76 6.703,5.22 8.762,8.939 -1.48,5.04 -3.719,9.8 -5.621,14.681 z m 17.641,-0.401 c -0.141,-1.32 -0.418,-3.98 -0.559,-5.3 -1.68,0.04 -5.062,0.12 -6.762,0.159 0.379,-3.079 0.922,-6.119 1.641,-9.119 2.859,-0.82 5.82,-1.26 8.762,-1.74 0.078,-0.8 0.219,-2.42 0.297,-3.22 -1.477,-1.681 -2.938,-3.38 -4.418,-5.061 2.52,-3.3 4.961,-7.02 9.32,-7.939 -0.223,2.72 -0.422,5.479 -0.641,8.22 5.121,8.06 -0.398,19.18 -7.64,24 z m 8.902,-58.519 c -4.66,7 -3.781,15.76 -5.543,23.64 -2.117,-0.061 -6.34,-0.16 -8.438,-0.22 0.199,-4.521 1.758,-8.721 4.137,-12.541 0.242,-2.959 0.441,-5.939 0.621,-8.899 2.539,-3.58 5.562,-6.9 10.082,-7.78 -0.281,1.939 -0.562,3.879 -0.859,5.8 z m 24.238,-18.121 c -1.621,1.86 -3.238,3.74 -4.82,5.641 -4.262,-0.7 -8.48,-1.58 -12.699,-2.44 0.059,1.561 0.219,4.681 0.281,6.261 -2.32,-1 -4.66,-1.961 -7,-2.92 0.438,-0.32 1.359,-0.961 1.816,-1.301 0.98,-1.56 1.82,-4.68 4.301,-3.319 5.5,0.8 9.082,-5.061 13.621,-7.28 0.461,-0.38 1.398,-1.16 1.859,-1.54 0.719,0.88 2.141,2.62 2.859,3.5 -0.058,0.838 -0.159,2.538 -0.218,3.398 z m 12.84,181.5 c -0.359,-4.039 -0.102,-8.158 -1.078,-12.119 -0.941,0.18 -2.801,0.58 -3.723,0.779 l 0.859,-2.881 -2.52,0.201 c -0.141,-2.721 -0.277,-5.439 -0.418,-8.139 1.098,-0.021 3.258,-0.041 4.34,-0.062 -0.742,2.721 -0.699,5.342 0.117,7.861 2.582,1.42 5.383,2.4 8.16,3.381 0.102,3.879 0.223,7.758 0.301,11.639 -2.018,-0.221 -4.038,-0.44 -6.038,-0.66 z m 32.301,38.74 c 1.359,1.76 2.738,3.52 4.121,5.301 -2.703,1.359 -5.684,1.939 -8.66,2.301 -0.062,-2.602 -0.062,-5.182 -0.062,-7.762 1.519,0.041 3.062,0.101 4.601,0.16 z"
         fill="#22409A"
         inkscape:connector-curvature="0" />
    </g>
  </g>
</svg>
