<svg xmlns="http://www.w3.org/2000/svg" viewBox="0 0 100 100" fill="none">
  <rect width="100" height="100" fill="white"/>
  <!-- Body / suit -->
  <path d="M18 100 C18 78 32 70 50 68 C68 70 82 78 82 100Z" fill="#5a6474"/>
  <!-- Shirt -->
  <path d="M44 68 L50 76 L56 68 L53 100 L47 100Z" fill="white"/>
  <!-- Tie -->
  <path d="M48 69 L50 75 L52 69 L51 100 L49 100Z" fill="#a8d5c2"/>
  <!-- Neck -->
  <ellipse cx="50" cy="66" rx="6" ry="5" fill="#c8cdd6"/>
  <!-- Head -->
  <ellipse cx="50" cy="46" rx="18" ry="20" fill="#c8cdd6"/>
  <!-- Hair -->
  <path d="M32 44 C32 26 68 26 68 44 C68 36 64 28 50 28 C36 28 32 36 32 44Z" fill="#5a6474"/>
  <!-- Left ear -->
  <ellipse cx="32" cy="48" rx="3" ry="4" fill="#5a6474"/>
  <!-- Right ear -->
  <ellipse cx="68" cy="48" rx="3" ry="4" fill="#5a6474"/>
  <!-- Face -->
  <ellipse cx="50" cy="48" rx="15" ry="17" fill="white"/>
</svg>
